<?xml version="1.0" standalone="no"?>
<!DOCTYPE svg PUBLIC "-//W3C//DTD SVG 20010904//EN"
 "http://www.w3.org/TR/2001/REC-SVG-20010904/DTD/svg10.dtd">
<svg version="1.0" xmlns="http://www.w3.org/2000/svg"
 width="1000.000000pt" height="1000.000000pt" viewBox="0 0 1000.000000 1000.000000"
 preserveAspectRatio="xMidYMid meet">

<g transform="translate(0.000000,1000.000000) scale(0.100000,-0.100000)"
fill="#000000" stroke="none">
<path d="M4160 8287 c-3 -2 -41 -7 -85 -11 -117 -8 -168 -15 -285 -38 -201
-39 -296 -83 -640 -300 -220 -138 -389 -206 -533 -213 -246 -14 -554 -13 -627
2 -125 25 -260 99 -721 396 -67 43 -123 76 -126 74 -4 -5 124 -207 234 -369
239 -352 441 -606 625 -784 136 -132 160 -149 348 -246 553 -287 1327 -828
1658 -1158 116 -116 162 -193 223 -370 85 -245 197 -787 255 -1230 41 -313
100 -560 200 -836 126 -348 296 -625 519 -850 179 -179 272 -231 940 -528 47
-22 157 -68 325 -138 170 -71 175 -74 465 -190 110 -43 225 -90 255 -102 30
-13 71 -29 90 -36 19 -7 49 -19 65 -26 32 -14 123 -50 305 -121 342 -132 464
-179 728 -277 64 -24 178 -67 252 -95 74 -29 191 -73 260 -98 168 -61 404
-184 610 -318 53 -34 107 -67 120 -74 l25 -12 -25 21 c-14 12 -63 59 -111 104
-47 44 -107 101 -135 126 -27 24 -112 103 -189 175 -217 201 -355 329 -410
376 -27 24 -97 87 -155 139 -142 128 -238 212 -280 246 -19 16 -37 31 -40 34
-38 41 -229 176 -560 396 -223 148 -409 272 -415 277 -5 4 -32 23 -60 41 -100
65 -803 539 -915 617 -63 44 -146 101 -185 127 -67 45 -248 176 -271 197 -6 6
-22 17 -35 25 -12 8 -75 58 -138 111 -194 161 -343 326 -406 449 -30 58 -93
257 -114 359 -42 204 -45 251 -55 921 -4 273 -7 302 -29 391 -36 138 -83 225
-222 409 -136 179 -216 262 -300 310 -30 17 -55 33 -55 34 0 5 36 -2 259 -45
240 -48 320 -70 382 -110 58 -37 223 -207 271 -279 55 -85 67 -123 88 -280 48
-366 154 -758 259 -955 201 -376 599 -875 849 -1062 64 -48 252 -163 266 -163
3 0 95 -50 203 -112 109 -61 218 -122 242 -135 24 -13 62 -34 85 -47 23 -13
129 -72 236 -131 168 -94 293 -168 390 -234 48 -33 53 -35 44 -18 -5 8 -25 33
-44 54 -44 48 -218 243 -475 533 -227 255 -258 289 -337 375 -31 33 -65 70
-75 82 -54 62 -202 222 -299 323 -319 332 -496 556 -656 825 -126 214 -163
301 -192 450 -39 202 -48 318 -50 650 -3 368 -9 417 -83 628 -83 240 -186 386
-371 528 -243 186 -333 236 -476 264 -173 34 -433 0 -811 -108 -294 -83 -482
-118 -593 -110 -56 4 -179 40 -332 96 -52 19 -152 54 -222 78 -70 24 -124 47
-120 50 4 3 45 21 92 39 156 61 325 148 451 231 221 148 476 278 614 314 124
32 398 11 1010 -76 77 -11 158 -24 180 -29 22 -5 53 -10 68 -10 16 0 55 -16
88 -35 32 -19 59 -30 59 -26 0 5 -4 11 -9 13 -5 2 -31 23 -58 49 -102 96 -322
252 -453 321 -175 93 -298 117 -630 125 -124 3 -227 3 -230 0z"/>
</g>
</svg>
